Coordinates
version=1
nRows=19
nColumns=27
inDegrees=yes

Units are S.I. units (second, meters, Newtons, ...)
If the header above contains a line with 'inDegrees', this indicates whether rotational values are in degrees (yes) or radians (no).

endheader
time	pelvis_rotation	pelvis_tilt	pelvis_list	pelvis_tx	pelvis_ty	pelvis_tz	hip_flexion_r	hip_adduction_r	hip_rotation_r	knee_angle_r	knee_rotation_r	knee_adduction_r	knee_angle_r_beta	ankle_angle_r	subtalar_angle_r	mtp_angle_r	hip_flexion_l	hip_adduction_l	hip_rotation_l	knee_angle_l	knee_rotation_l	knee_adduction_l	knee_angle_l_beta	ankle_angle_l	subtalar_angle_l	mtp_angle_l
      2.29500000	      1.91019412	    -19.93182656	     -5.12143183	      0.05054959	      0.82924355	     -1.17887214	     34.20231177	    -21.16376650	    -29.98472354	     27.03844772	      0.00000000	      1.48680893	      0.47190994	      0.29393924	      0.00000000	      0.00000000	     43.02700977	    -25.13150409	      1.51831303	     28.55867355	      0.00000000	      3.33657141	      0.49844288	      2.15166046	      0.00000000	      0.00000000
      2.30000000	      0.90015937	    -20.31409722	     -4.46661275	      0.04864369	      0.82847539	     -1.17967726	     35.98689207	    -21.63927965	    -27.59346758	     28.00000773	      0.00000000	      0.94692667	      0.48869233	      0.42514000	      0.00000000	      0.00000000	     43.02117887	    -25.03357276	     -0.16437218	     28.78275020	      0.00000000	      2.94452307	      0.50235376	      2.24823861	      0.00000000	      0.00000000
      2.30500000	      1.71215234	    -20.58730399	     -4.57383742	      0.04837367	      0.82800433	     -1.17974830	     35.94114023	    -22.01993850	    -28.99647149	     28.34030408	      0.00000000	      1.53773663	      0.49463162	      0.49140156	      0.00000000	      0.00000000	     43.96570142	    -24.74223761	      1.02677437	     29.14682383	      0.00000000	      2.97315454	      0.50870804	      2.24668024	      0.00000000	      0.00000000
      2.31000000	      1.58207291	    -20.85891416	     -4.28447956	      0.04729070	      0.82730212	     -1.18017004	     36.79717113	    -22.44360161	    -28.43447278	     29.00821351	      0.00000000	      1.57124029	      0.50628884	      0.59513681	      0.00000000	      0.00000000	     44.36585610	    -24.56868706	      0.69896505	     29.45489523	      0.00000000	      2.75475821	      0.51408490	      2.29439759	      0.00000000	      0.00000000
      2.31500000	      1.37086708	    -21.20419361	     -3.95537201	      0.04606756	      0.82649489	     -1.18061819	     37.84604108	    -22.88664163	    -27.71673627	     29.75718305	      0.00000000	      1.61133966	      0.51936082	      0.74368418	      0.00000000	      0.00000000	     44.82149289	    -24.40956201	      0.25533771	     29.78911405	      0.00000000	      2.53429083	      0.51991812	      2.34703381	      0.00000000	      0.00000000
      2.32000000	      0.98987996	    -21.38118749	     -3.48513739	      0.04495482	      0.82562374	     -1.18119026	     38.90190081	    -23.39320420	    -26.66108527	     30.56567565	      0.00000000	      1.60245294	      0.53347168	      0.84698212	      0.00000000	      0.00000000	     44.93606206	    -24.24893749	     -0.64445594	     30.08034350	      0.00000000	      2.15256131	      0.52500103	      2.44002378	      0.00000000	      0.00000000
      2.32500000	      0.80252162	    -21.73138900	     -3.28528758	      0.04376955	      0.82473969	     -1.18148050	     39.89199078	    -23.68628545	    -26.01108090	     31.24756724	      0.00000000	      1.59832044	      0.54537293	      0.95131707	      0.00000000	      0.00000000	     45.50698847	    -24.21919547	     -1.00578532	     30.50827586	      0.00000000	      1.86984030	      0.53246986	      2.51008659	      0.00000000	      0.00000000
      2.33000000	      1.07026981	    -21.95245098	     -3.01620759	      0.04293133	      0.82377883	     -1.18183082	     40.47704549	    -24.26725613	    -26.13040161	     31.95924510	      0.00000000	      1.91626533	      0.55779405	      1.12998842	      0.00000000	      0.00000000	     46.07535277	    -23.91160308	     -0.85749221	     30.90080638	      0.00000000	      1.65529224	      0.53932081	      2.58386555	      0.00000000	      0.00000000
      2.33500000	      1.11269088	    -22.16280832	     -2.83576401	      0.04203481	      0.82277555	     -1.18210431	     41.14930827	    -24.65308752	    -25.93891403	     32.61850936	      0.00000000	      2.11719397	      0.56930039	      1.25167889	      0.00000000	      0.00000000	     46.61590410	    -23.81263817	     -0.99930911	     31.37319502	      0.00000000	      1.31172450	      0.54756555	      2.69839185	      0.00000000	      0.00000000
      2.34000000	      0.78571687	    -22.31064435	     -2.44128565	      0.04102866	      0.82165881	     -1.18250369	     42.15113647	    -25.07452419	    -25.00507910	     33.42210550	      0.00000000	      2.19955528	      0.58332578	      1.39842369	      0.00000000	      0.00000000	     46.80760984	    -23.75060042	     -1.82737053	     31.76450513	      0.00000000	      0.87052017	      0.55439520	      2.82105503	      0.00000000	      0.00000000
      2.34500000	      0.57153573	    -22.44010482	     -2.12412546	      0.04013116	      0.82049952	     -1.18281086	     43.01899651	    -25.46587355	    -24.31674997	     34.18457306	      0.00000000	      2.34618227	      0.59663335	      1.55269868	      0.00000000	      0.00000000	     47.07463165	    -23.70897345	     -2.46373515	     32.19504690	      0.00000000	      0.42531654	      0.56190957	      2.93927634	      0.00000000	      0.00000000
      2.35000000	      0.65146073	    -22.56348201	     -1.94098419	      0.03938168	      0.81929722	     -1.18301078	     43.60299365	    -25.88025402	    -24.20996268	     34.87929091	      0.00000000	      2.63133924	      0.60875847	      1.70034735	      0.00000000	      0.00000000	     47.55260497	    -23.62793762	     -2.60631389	     32.69780921	      0.00000000	      0.03029555	      0.57068443	      3.08256131	      0.00000000	      0.00000000
      2.35500000	      0.49727839	    -22.61032027	     -1.65681760	      0.03866001	      0.81803025	     -1.18327517	     44.32388296	    -26.26706754	    -23.67327605	     35.61759598	      0.00000000	      2.84984782	      0.62164432	      1.85086387	      0.00000000	      0.00000000	     47.78477379	    -23.61505210	     -3.20376162	     33.17427762	      0.00000000	     -0.46703394	      0.57900037	      3.24755726	      0.00000000	      0.00000000
      2.36000000	      0.26286413	    -22.62063734	     -1.35685083	      0.03794054	      0.81671331	     -1.18348899	     45.07889291	    -26.61476237	    -22.98989955	     36.37206277	      0.00000000	      3.04468611	      0.63481225	      2.03268871	      0.00000000	      0.00000000	     47.92687193	    -23.64921035	     -3.93465793	     33.63080365	      0.00000000	     -1.01283460	      0.58696825	      3.41273827	      0.00000000	      0.00000000
      2.36500000	      0.28604883	    -22.57524555	     -1.05949501	      0.03739276	      0.81538012	     -1.18371276	     45.59795931	    -27.10938298	    -22.77101580	     37.12103178	      0.00000000	      3.40652164	      0.64788423	      2.20903641	      0.00000000	      0.00000000	     48.11205003	    -23.54160239	     -4.30653615	     34.07503378	      0.00000000	     -1.46776533	      0.59472153	      3.53896275	      0.00000000	      0.00000000
      2.37000000	      0.09050003	    -22.69337959	     -0.84585119	      0.03643574	      0.81388961	     -1.18385471	     46.44207551	    -27.38797528	    -22.14013933	     37.87347917	      0.00000000	      3.58690613	      0.66101691	      2.35992295	      0.00000000	      0.00000000	     48.49249585	    -23.63168601	     -4.84874115	     34.63862539	      0.00000000	     -1.97765682	      0.60455806	      3.70007885	      0.00000000	      0.00000000
      2.37500000	      0.17197273	    -22.50655344	     -0.69508049	      0.03630301	      0.81260693	     -1.18392029	     46.61556198	    -27.77652972	    -22.20998411	     38.47363067	      0.00000000	      4.01498913	      0.67149153	      2.53144724	      0.00000000	      0.00000000	     48.58300918	    -23.65603616	     -5.16647312	     35.09156705	      0.00000000	     -2.47106118	      0.61246338	      3.89005841	      0.00000000	      0.00000000
      2.38000000	      0.32634905	    -22.48227782	     -0.44935048	      0.03576111	      0.81118552	     -1.18405744	     47.03659089	    -28.28113159	    -22.18187960	     39.16573798	      0.00000000	      4.38789662	      0.68357108	      2.70830126	      0.00000000	      0.00000000	     48.89299420	    -23.53815264	     -5.32289929	     35.58135457	      0.00000000	     -2.90485742	      0.62101179	      4.05178758	      0.00000000	      0.00000000
      2.38500000	      0.79178209	    -22.48336845	     -0.51811646	      0.03532791	      0.80982995	     -1.18399990	     47.04704768	    -28.68572697	    -22.90183360	     39.69481260	      0.00000000	      4.86601316	      0.69280518	      2.89157952	      0.00000000	      0.00000000	     49.54263172	    -23.47877175	     -4.79776384	     36.15743211	      0.00000000	     -3.23798966	      0.63106624	      4.19028852	      0.00000000	      0.00000000
